<svg xmlns="http://www.w3.org/2000/svg" viewBox="0 0 640 440" shape-rendering="crispEdges">
<rect x="0" y="0" width="640" height="176" fill="#6ec4f0"/>
<rect x="0" y="0" width="640" height="32" fill="#5ab4e6"/>
<rect x="572" y="16" width="36" height="36" fill="#ffe066"/>
<rect x="580" y="24" width="20" height="20" fill="#fff3a0"/>
<rect x="44" y="40" width="56" height="16" fill="#fff"/>
<rect x="56" y="32" width="32" height="16" fill="#fff"/>
<rect x="400" y="48" width="56" height="16" fill="#fff"/>
<rect x="412" y="40" width="32" height="16" fill="#fff"/>
<rect x="240" y="28" width="56" height="16" fill="#fff"/>
<rect x="252" y="20" width="32" height="16" fill="#fff"/>
<rect x="0" y="144" width="640" height="32" fill="#3d8b42"/>
<rect x="8" y="140" width="32" height="36" fill="#2f8a38"/>
<rect x="44" y="132" width="32" height="44" fill="#2f8a38"/>
<rect x="88" y="144" width="32" height="32" fill="#2f8a38"/>
<rect x="480" y="136" width="32" height="40" fill="#4aa24e"/>
<rect x="536" y="140" width="32" height="36" fill="#2f8a38"/>
<rect x="584" y="132" width="32" height="44" fill="#2f8a38"/>
<rect x="0" y="172" width="640" height="8" fill="#c9a06a"/>
<rect x="12" y="160" width="6" height="28" fill="#b8894e"/>
<rect x="40" y="160" width="6" height="28" fill="#b8894e"/>
<rect x="68" y="160" width="6" height="28" fill="#b8894e"/>
<rect x="96" y="160" width="6" height="28" fill="#b8894e"/>
<rect x="124" y="160" width="6" height="28" fill="#b8894e"/>
<rect x="152" y="160" width="6" height="28" fill="#b8894e"/>
<rect x="180" y="160" width="6" height="28" fill="#b8894e"/>
<rect x="208" y="160" width="6" height="28" fill="#b8894e"/>
<rect x="236" y="160" width="6" height="28" fill="#b8894e"/>
<rect x="264" y="160" width="6" height="28" fill="#b8894e"/>
<rect x="292" y="160" width="6" height="28" fill="#b8894e"/>
<rect x="320" y="160" width="6" height="28" fill="#b8894e"/>
<rect x="348" y="160" width="6" height="28" fill="#b8894e"/>
<rect x="376" y="160" width="6" height="28" fill="#b8894e"/>
<rect x="404" y="160" width="6" height="28" fill="#b8894e"/>
<rect x="432" y="160" width="6" height="28" fill="#b8894e"/>
<rect x="460" y="160" width="6" height="28" fill="#b8894e"/>
<rect x="488" y="160" width="6" height="28" fill="#b8894e"/>
<rect x="516" y="160" width="6" height="28" fill="#b8894e"/>
<rect x="544" y="160" width="6" height="28" fill="#b8894e"/>
<rect x="572" y="160" width="6" height="28" fill="#b8894e"/>
<rect x="600" y="160" width="6" height="28" fill="#b8894e"/>
<rect x="628" y="160" width="6" height="28" fill="#b8894e"/>
<rect x="0" y="180" width="640" height="260" fill="#6fc45e"/>
<rect x="0" y="192" width="640" height="2" fill="#5aad4c"/>
<rect x="0" y="212" width="640" height="2" fill="#5aad4c"/>
<rect x="0" y="232" width="640" height="2" fill="#5aad4c"/>
<rect x="0" y="252" width="640" height="2" fill="#5aad4c"/>
<rect x="0" y="272" width="640" height="2" fill="#5aad4c"/>
<rect x="0" y="292" width="640" height="2" fill="#5aad4c"/>
<rect x="0" y="312" width="640" height="2" fill="#5aad4c"/>
<rect x="0" y="332" width="640" height="2" fill="#5aad4c"/>
<rect x="0" y="352" width="640" height="2" fill="#5aad4c"/>
<rect x="0" y="372" width="640" height="2" fill="#5aad4c"/>
<rect x="0" y="392" width="640" height="2" fill="#5aad4c"/>
<rect x="0" y="412" width="640" height="2" fill="#5aad4c"/>
<rect x="0" y="432" width="640" height="2" fill="#5aad4c"/>
<rect x="32" y="200" width="12" height="8" fill="#8ed97c"/>
<rect x="140" y="300" width="12" height="8" fill="#8ed97c"/>
<rect x="420" y="236" width="12" height="8" fill="#8ed97c"/>
<rect x="560" y="340" width="12" height="8" fill="#8ed97c"/>
<rect x="80" y="380" width="12" height="8" fill="#8ed97c"/>
<rect x="500" y="280" width="12" height="8" fill="#8ed97c"/>
<rect x="216" y="296" width="208" height="32" fill="#e2c48a"/>
<rect x="232" y="328" width="176" height="16" fill="#d4b06e"/>
<rect x="28" y="140" width="8" height="2" fill="#2f8a38"/>
<rect x="24" y="142" width="6" height="2" fill="#2f8a38"/>
<rect x="30" y="142" width="4" height="2" fill="#56b85f"/>
<rect x="34" y="142" width="6" height="2" fill="#2f8a38"/>
<rect x="22" y="144" width="4" height="2" fill="#2f8a38"/>
<rect x="26" y="144" width="4" height="2" fill="#56b85f"/>
<rect x="30" y="144" width="4" height="2" fill="#2f8a38"/>
<rect x="34" y="144" width="4" height="2" fill="#56b85f"/>
<rect x="38" y="144" width="4" height="2" fill="#2f8a38"/>
<rect x="20" y="146" width="4" height="2" fill="#2f8a38"/>
<rect x="24" y="146" width="4" height="2" fill="#56b85f"/>
<rect x="28" y="146" width="6" height="2" fill="#2f8a38"/>
<rect x="34" y="146" width="6" height="2" fill="#56b85f"/>
<rect x="40" y="146" width="4" height="2" fill="#2f8a38"/>
<rect x="20" y="148" width="2" height="2" fill="#2f8a38"/>
<rect x="22" y="148" width="2" height="2" fill="#56b85f"/>
<rect x="24" y="148" width="4" height="2" fill="#2f8a38"/>
<rect x="28" y="148" width="6" height="2" fill="#56b85f"/>
<rect x="34" y="148" width="4" height="2" fill="#2f8a38"/>
<rect x="38" y="148" width="4" height="2" fill="#56b85f"/>
<rect x="42" y="148" width="2" height="2" fill="#2f8a38"/>
<rect x="18" y="150" width="4" height="2" fill="#2f8a38"/>
<rect x="22" y="150" width="4" height="2" fill="#56b85f"/>
<rect x="26" y="150" width="10" height="2" fill="#2f8a38"/>
<rect x="36" y="150" width="4" height="2" fill="#56b85f"/>
<rect x="40" y="150" width="4" height="2" fill="#2f8a38"/>
<rect x="18" y="152" width="2" height="2" fill="#2f8a38"/>
<rect x="20" y="152" width="4" height="2" fill="#56b85f"/>
<rect x="24" y="152" width="4" height="2" fill="#2f8a38"/>
<rect x="28" y="152" width="6" height="2" fill="#56b85f"/>
<rect x="34" y="152" width="4" height="2" fill="#2f8a38"/>
<rect x="38" y="152" width="4" height="2" fill="#56b85f"/>
<rect x="42" y="152" width="2" height="2" fill="#2f8a38"/>
<rect x="20" y="154" width="6" height="2" fill="#2f8a38"/>
<rect x="26" y="154" width="4" height="2" fill="#56b85f"/>
<rect x="30" y="154" width="4" height="2" fill="#2f8a38"/>
<rect x="34" y="154" width="4" height="2" fill="#56b85f"/>
<rect x="38" y="154" width="4" height="2" fill="#2f8a38"/>
<rect x="22" y="156" width="4" height="2" fill="#2f8a38"/>
<rect x="26" y="156" width="8" height="2" fill="#8a5528"/>
<rect x="34" y="156" width="4" height="2" fill="#2f8a38"/>
<rect x="26" y="158" width="8" height="2" fill="#8a5528"/>
<rect x="26" y="160" width="2" height="2" fill="#8a5528"/>
<rect x="28" y="160" width="4" height="2" fill="#a86a32"/>
<rect x="32" y="160" width="2" height="2" fill="#8a5528"/>
<rect x="26" y="162" width="2" height="2" fill="#8a5528"/>
<rect x="28" y="162" width="4" height="2" fill="#a86a32"/>
<rect x="32" y="162" width="2" height="2" fill="#8a5528"/>
<rect x="26" y="164" width="2" height="2" fill="#8a5528"/>
<rect x="28" y="164" width="4" height="2" fill="#a86a32"/>
<rect x="32" y="164" width="2" height="2" fill="#8a5528"/>
<rect x="26" y="166" width="2" height="2" fill="#8a5528"/>
<rect x="28" y="166" width="4" height="2" fill="#a86a32"/>
<rect x="32" y="166" width="2" height="2" fill="#8a5528"/>
<rect x="24" y="168" width="4" height="2" fill="#8a5528"/>
<rect x="28" y="168" width="4" height="2" fill="#a86a32"/>
<rect x="32" y="168" width="4" height="2" fill="#8a5528"/>
<rect x="156" y="216" width="4" height="2" fill="#c9a06a"/>
<rect x="156" y="218" width="4" height="2" fill="#c9a06a"/>
<rect x="160" y="218" width="12" height="2" fill="#3d7cc9"/>
<rect x="156" y="220" width="4" height="2" fill="#c9a06a"/>
<rect x="168" y="220" width="8" height="2" fill="#3d7cc9"/>
<rect x="156" y="222" width="4" height="2" fill="#c9a06a"/>
<rect x="172" y="222" width="6" height="2" fill="#3d7cc9"/>
<rect x="156" y="224" width="4" height="2" fill="#c9a06a"/>
<rect x="174" y="224" width="4" height="2" fill="#3d7cc9"/>
<rect x="156" y="226" width="4" height="2" fill="#c9a06a"/>
<rect x="176" y="226" width="4" height="2" fill="#3d7cc9"/>
<rect x="156" y="228" width="4" height="2" fill="#c9a06a"/>
<rect x="178" y="228" width="2" height="2" fill="#3d7cc9"/>
<rect x="156" y="230" width="4" height="2" fill="#c9a06a"/>
<rect x="156" y="232" width="4" height="2" fill="#c9a06a"/>
<rect x="156" y="234" width="4" height="2" fill="#c9a06a"/>
<rect x="156" y="236" width="4" height="2" fill="#c9a06a"/>
<rect x="156" y="238" width="4" height="2" fill="#c9a06a"/>
<rect x="336" y="156" width="32" height="2" fill="#6e421e"/>
<rect x="336" y="158" width="2" height="2" fill="#6e421e"/>
<rect x="366" y="158" width="2" height="2" fill="#6e421e"/>
<rect x="336" y="160" width="2" height="2" fill="#6e421e"/>
<rect x="340" y="160" width="4" height="2" fill="#555555"/>
<rect x="360" y="160" width="4" height="2" fill="#555555"/>
<rect x="366" y="160" width="2" height="2" fill="#6e421e"/>
<rect x="336" y="162" width="2" height="2" fill="#6e421e"/>
<rect x="340" y="162" width="4" height="2" fill="#555555"/>
<rect x="360" y="162" width="4" height="2" fill="#555555"/>
<rect x="366" y="162" width="2" height="2" fill="#6e421e"/>
<rect x="336" y="164" width="2" height="2" fill="#6e421e"/>
<rect x="340" y="164" width="4" height="2" fill="#555555"/>
<rect x="360" y="164" width="4" height="2" fill="#555555"/>
<rect x="366" y="164" width="2" height="2" fill="#6e421e"/>
<rect x="336" y="166" width="2" height="2" fill="#6e421e"/>
<rect x="340" y="166" width="4" height="2" fill="#555555"/>
<rect x="360" y="166" width="4" height="2" fill="#555555"/>
<rect x="366" y="166" width="2" height="2" fill="#6e421e"/>
<rect x="336" y="168" width="2" height="2" fill="#6e421e"/>
<rect x="340" y="168" width="4" height="2" fill="#555555"/>
<rect x="360" y="168" width="4" height="2" fill="#555555"/>
<rect x="366" y="168" width="2" height="2" fill="#6e421e"/>
<rect x="336" y="170" width="2" height="2" fill="#6e421e"/>
<rect x="340" y="170" width="24" height="2" fill="#555555"/>
<rect x="366" y="170" width="2" height="2" fill="#6e421e"/>
<rect x="336" y="172" width="2" height="2" fill="#6e421e"/>
<rect x="346" y="172" width="12" height="2" fill="#e04b4b"/>
<rect x="366" y="172" width="2" height="2" fill="#6e421e"/>
<rect x="336" y="174" width="2" height="2" fill="#6e421e"/>
<rect x="366" y="174" width="2" height="2" fill="#6e421e"/>
<rect x="336" y="176" width="2" height="2" fill="#6e421e"/>
<rect x="366" y="176" width="2" height="2" fill="#6e421e"/>
<rect x="336" y="178" width="2" height="2" fill="#6e421e"/>
<rect x="366" y="178" width="2" height="2" fill="#6e421e"/>
<rect x="336" y="180" width="4" height="2" fill="#6e421e"/>
<rect x="364" y="180" width="4" height="2" fill="#6e421e"/>
<rect x="464" y="284" width="36" height="2" fill="#6e421e"/>
<rect x="464" y="286" width="2" height="2" fill="#6e421e"/>
<rect x="466" y="286" width="32" height="2" fill="#a86a32"/>
<rect x="498" y="286" width="2" height="2" fill="#6e421e"/>
<rect x="464" y="288" width="36" height="2" fill="#6e421e"/>
<rect x="466" y="290" width="4" height="2" fill="#5a3214"/>
<rect x="494" y="290" width="4" height="2" fill="#5a3214"/>
<rect x="466" y="292" width="4" height="2" fill="#5a3214"/>
<rect x="494" y="292" width="4" height="2" fill="#5a3214"/>
<rect x="466" y="294" width="4" height="2" fill="#5a3214"/>
<rect x="494" y="294" width="4" height="2" fill="#5a3214"/>
<rect x="492" y="252" width="8" height="2" fill="#2a2a2a"/>
<rect x="490" y="254" width="2" height="2" fill="#2a2a2a"/>
<rect x="492" y="254" width="8" height="2" fill="#3d3d3d"/>
<rect x="500" y="254" width="2" height="2" fill="#2a2a2a"/>
<rect x="490" y="256" width="2" height="2" fill="#2a2a2a"/>
<rect x="492" y="256" width="2" height="2" fill="#3d3d3d"/>
<rect x="494" y="256" width="4" height="2" fill="#e04b4b"/>
<rect x="498" y="256" width="2" height="2" fill="#3d3d3d"/>
<rect x="500" y="256" width="2" height="2" fill="#2a2a2a"/>
<rect x="490" y="258" width="2" height="2" fill="#2a2a2a"/>
<rect x="492" y="258" width="8" height="2" fill="#3d3d3d"/>
<rect x="500" y="258" width="2" height="2" fill="#2a2a2a"/>
<rect x="488" y="260" width="16" height="2" fill="#2a2a2a"/>
<rect x="130" y="336" width="4" height="2" fill="#e85a8c"/>
<rect x="128" y="338" width="2" height="2" fill="#e85a8c"/>
<rect x="130" y="338" width="4" height="2" fill="#ffe066"/>
<rect x="134" y="338" width="2" height="2" fill="#e85a8c"/>
<rect x="128" y="340" width="2" height="2" fill="#e85a8c"/>
<rect x="130" y="340" width="4" height="2" fill="#ffe066"/>
<rect x="134" y="340" width="2" height="2" fill="#e85a8c"/>
<rect x="130" y="342" width="4" height="2" fill="#3f9a4a"/>
<rect x="130" y="344" width="4" height="2" fill="#3f9a4a"/>
<rect x="130" y="346" width="4" height="2" fill="#3f9a4a"/>
<rect x="158" y="352" width="4" height="2" fill="#e85a8c"/>
<rect x="156" y="354" width="2" height="2" fill="#e85a8c"/>
<rect x="158" y="354" width="4" height="2" fill="#ffe066"/>
<rect x="162" y="354" width="2" height="2" fill="#e85a8c"/>
<rect x="156" y="356" width="2" height="2" fill="#e85a8c"/>
<rect x="158" y="356" width="4" height="2" fill="#ffe066"/>
<rect x="162" y="356" width="2" height="2" fill="#e85a8c"/>
<rect x="158" y="358" width="4" height="2" fill="#3f9a4a"/>
<rect x="158" y="360" width="4" height="2" fill="#3f9a4a"/>
<rect x="158" y="362" width="4" height="2" fill="#3f9a4a"/>
<rect x="266" y="344" width="4" height="2" fill="#f4f4f4"/>
<rect x="270" y="344" width="4" height="2" fill="#e04b4b"/>
<rect x="264" y="346" width="4" height="2" fill="#f4f4f4"/>
<rect x="268" y="346" width="4" height="2" fill="#3d7cc9"/>
<rect x="272" y="346" width="4" height="2" fill="#e04b4b"/>
<rect x="264" y="348" width="4" height="2" fill="#f4f4f4"/>
<rect x="268" y="348" width="4" height="2" fill="#3d7cc9"/>
<rect x="272" y="348" width="4" height="2" fill="#e04b4b"/>
<rect x="264" y="350" width="4" height="2" fill="#e04b4b"/>
<rect x="268" y="350" width="4" height="2" fill="#3d7cc9"/>
<rect x="272" y="350" width="4" height="2" fill="#f4f4f4"/>
<rect x="264" y="352" width="4" height="2" fill="#e04b4b"/>
<rect x="268" y="352" width="4" height="2" fill="#3d7cc9"/>
<rect x="272" y="352" width="4" height="2" fill="#f4f4f4"/>
<rect x="266" y="354" width="4" height="2" fill="#e04b4b"/>
<rect x="270" y="354" width="4" height="2" fill="#f4f4f4"/>
</svg>